<?xml version="1.0" encoding="UTF-8" standalone="no"?>
<!-- Created with Inkscape (http://www.inkscape.org/) -->

<svg
   xmlns:dc="http://purl.org/dc/elements/1.1/"
   xmlns:cc="http://creativecommons.org/ns#"
   xmlns:rdf="http://www.w3.org/1999/02/22-rdf-syntax-ns#"
   xmlns:svg="http://www.w3.org/2000/svg"
   xmlns="http://www.w3.org/2000/svg"
   xmlns:xlink="http://www.w3.org/1999/xlink"
   xmlns:sodipodi="http://sodipodi.sourceforge.net/DTD/sodipodi-0.dtd"
   xmlns:inkscape="http://www.inkscape.org/namespaces/inkscape"
   id="svg4136"
   version="1.1"
   inkscape:version="0.92.3 (2405546, 2018-03-11)"
   width="609.39111"
   height="528.20996"
   viewBox="0 0 609.39111 528.20995"
   sodipodi:docname="mapa_gray.svg">
  <metadata
     id="metadata4142">
    <rdf:RDF>
      <cc:Work
         rdf:about="">
        <dc:format>image/svg+xml</dc:format>
        <dc:type
           rdf:resource="http://purl.org/dc/dcmitype/StillImage" />
        <dc:title></dc:title>
      </cc:Work>
    </rdf:RDF>
  </metadata>
  <defs
     id="defs4140">
    <linearGradient
       id="linearGradient926"
       inkscape:collect="always">
      <stop
         id="stop922"
         offset="0"
         style="stop-color:#a3a3a3;stop-opacity:1" />
      <stop
         id="stop924"
         offset="1"
         style="stop-color:#fdfdfd;stop-opacity:0" />
    </linearGradient>
    <linearGradient
       inkscape:collect="always"
       xlink:href="#linearGradient926"
       id="linearGradient920"
       x1="298.91248"
       y1="582.2489"
       x2="298.91248"
       y2="441.19006"
       gradientUnits="userSpaceOnUse"
       gradientTransform="matrix(3.6693164,0,0,3.6693164,-799.30058,-1617.191)" />
  </defs>
  <sodipodi:namedview
     pagecolor="#ffffff"
     bordercolor="#666666"
     borderopacity="1"
     objecttolerance="10"
     gridtolerance="10"
     guidetolerance="10"
     inkscape:pageopacity="0"
     inkscape:pageshadow="2"
     inkscape:window-width="1871"
     inkscape:window-height="1025"
     id="namedview4138"
     showgrid="false"
     inkscape:zoom="1.04523"
     inkscape:cx="517.40223"
     inkscape:cy="139.59503"
     inkscape:window-x="49"
     inkscape:window-y="27"
     inkscape:window-maximized="1"
     inkscape:current-layer="g4231"
     fit-margin-top="0"
     fit-margin-left="0"
     fit-margin-right="0"
     fit-margin-bottom="0" />
  <g
     id="g4304"
     transform="matrix(3.6693164,0,0,3.6693164,-719.86624,-1592.3678)">
    <g
       transform="translate(-21.648267,-6.765084)"
       id="g4231">
      <path
         style="fill:url(#linearGradient920);fill-opacity:1;stroke-width:3.66931629"
         d="M 609.28516 0 L 607.34375 0.1796875 C 606.27572 0.27831872 605.32063 0.4895561 605.22266 0.6484375 C 605.12469 0.80695197 605.04632 1.762761 605.04688 2.7734375 C 605.04801 4.693444 605.29622 5.1359053 606.64844 5.6308594 C 608.82596 6.4279083 609.59423 5.115976 609.34766 1.015625 L 609.28516 0 z M 571.24219 11.162109 C 570.41168 11.153449 569.65968 11.924139 570.23242 12.65625 C 570.7258 13.286675 572.11019 13.110875 572.31641 12.390625 C 572.40704 12.075688 572.28794 11.656512 572.05273 11.460938 C 571.80435 11.254667 571.51902 11.164996 571.24219 11.162109 z M 515.38281 37.84375 C 515.22415 37.838076 515.0596 37.843368 514.88672 37.859375 C 513.37386 37.999359 513.1646 38.831976 514.39062 39.835938 C 515.02156 40.35221 515.33057 40.900867 515.39258 41.609375 C 515.49829 42.817351 515.0623 43.254416 513.375 43.628906 C 511.31248 44.086874 510.67116 45.080923 512.18945 45.464844 C 513.70727 45.848618 515.99193 45.19919 517.69141 43.902344 C 518.56382 43.23651 519.61169 42.512761 520.01953 42.292969 L 520.75977 41.892578 L 519.69727 41.404297 C 519.05976 41.111045 518.37624 40.448638 517.98828 39.75 C 517.27529 38.465739 516.49342 37.883468 515.38281 37.84375 z M 508.11328 38.306641 C 506.82277 38.354555 506.20938 38.88498 506.40234 39.810547 C 506.5293 40.42013 506.89869 40.792324 507.74219 41.164062 C 509.44053 41.91275 510.23641 41.700694 510.50391 40.427734 C 510.75415 39.238215 510.04087 38.398599 508.70898 38.316406 C 508.4974 38.303371 508.29764 38.299796 508.11328 38.306641 z M 532.98828 40.056641 C 532.7473 40.044846 532.48294 40.051725 532.19727 40.076172 C 530.28735 40.240594 529.6787 40.976978 530.09961 42.611328 C 530.2753 43.293821 530.59735 44.001596 530.81641 44.183594 C 531.67756 44.898817 533.9735 43.993389 534.53711 42.716797 C 535.25273 41.095899 534.67517 40.1392 532.98828 40.056641 z M 515.60938 51.738281 C 515.26507 51.781575 514.98495 52.049728 515.1875 52.275391 C 515.30286 52.404184 515.52703 52.497099 515.68555 52.482422 C 516.14311 52.440078 516.34078 51.932307 515.95898 51.779297 C 515.84524 51.733788 515.72414 51.72385 515.60938 51.738281 z M 494.22656 53.130859 C 492.90594 53.166241 491.36514 53.457673 490.44531 53.982422 C 489.27392 54.650678 487.33101 55.670743 486.03516 56.296875 C 485.60045 56.50687 484.68303 57.03312 483.99609 57.466797 C 483.30912 57.900327 482.45054 58.26681 482.08984 58.285156 C 480.29331 58.365001 479.55779 58.599208 478.90039 59.300781 C 478.09864 60.156319 476.64105 60.723056 474.80859 60.892578 C 473.92198 60.974587 473.35224 61.219454 472.81641 61.75 C 471.77916 62.776968 471.0422 63.146135 469.79492 63.261719 C 469.03761 63.331803 468.4367 63.638096 467.73047 64.316406 C 466.82462 65.186254 466.49482 65.311443 464.08984 65.681641 C 461.67573 66.053526 461.3865 66.162532 460.76367 66.935547 C 460.20495 67.628938 459.72087 67.857735 458.09375 68.195312 C 456.65428 68.494105 455.79272 68.856966 454.9668 69.511719 C 454.2358 70.091287 453.25395 70.538387 452.23047 70.757812 C 451.10105 71.000061 450.40669 71.338649 449.85938 71.916016 C 449.43392 72.364846 448.5615 72.923734 447.91992 73.158203 C 447.27842 73.392562 446.38948 73.917704 445.94531 74.326172 C 445.2965 74.923353 444.79312 75.102161 443.38477 75.232422 C 441.84281 75.375122 441.52805 75.504525 440.77734 76.314453 C 440.30796 76.820892 439.319 77.522142 438.57812 77.871094 C 437.83722 78.220266 436.94721 78.76634 436.60156 79.085938 C 435.84532 79.784942 434.64931 80.123923 432.08203 80.361328 C 430.3875 80.518118 430.04381 80.647298 429.19531 81.451172 C 428.22544 82.370152 427.92269 82.499546 425.65039 82.966797 C 424.96628 83.107478 423.92868 83.587565 423.3457 84.033203 C 422.50829 84.673829 421.73667 84.941177 419.67188 85.306641 C 417.33698 85.720136 416.95009 85.87298 416.04102 86.746094 C 415.04318 87.704483 414.95968 87.73134 411.7207 88.095703 C 408.62402 88.443628 408.33559 88.525162 407.10938 89.412109 C 405.89791 90.288342 405.56139 90.38801 402.54297 90.755859 C 399.51461 91.124809 399.17694 91.224351 397.7793 92.164062 C 396.95205 92.720331 395.64689 93.312414 394.87891 93.480469 C 394.11107 93.64845 393.2329 94.018244 392.92578 94.300781 C 392.61899 94.583429 391.801 95.142243 391.10938 95.542969 C 390.41775 95.943731 389.63517 96.652807 389.36914 97.119141 C 388.9774 97.805083 388.66491 97.98799 387.73242 98.074219 C 387.09902 98.132854 385.62616 98.576527 384.45898 99.060547 C 382.6077 99.828241 381.66642 100.01967 377.08594 100.55664 C 371.30629 101.23447 370.18743 101.51789 368.65039 102.69336 C 368.07944 103.13001 366.99234 103.6433 366.23242 103.83594 C 365.47258 104.02839 364.33032 104.54486 363.69531 104.98438 C 363.0603 105.42378 361.99154 105.9213 361.32031 106.08789 C 360.64927 106.25477 359.35886 106.82541 358.45312 107.35742 C 357.42164 107.96326 356.00559 108.49492 354.66211 108.7793 C 353.0042 109.13019 352.28091 109.4402 351.47656 110.14258 C 350.90419 110.64227 350.09406 111.08183 349.67773 111.12109 C 348.78826 111.2034 347.07536 111.7967 345.96484 112.40625 C 345.53252 112.64351 344.16833 113.17132 342.93555 113.58008 C 341.70273 113.98877 340.15113 114.69695 339.48633 115.1543 C 338.56126 115.79063 337.87796 116.02418 336.57422 116.14453 C 335.27869 116.26441 334.61834 116.48609 333.81836 117.07227 C 332.13458 118.30578 331.70638 118.43271 327.41992 118.95508 C 325.18179 119.22767 323.05734 119.61484 322.69922 119.81445 C 321.62903 120.41193 320.4337 122.40412 320.38086 123.67969 C 320.28116 126.06474 319.88949 126.84588 318.20703 128.01367 C 316.40841 129.26208 315.18264 129.82828 314.04688 129.93359 C 313.61768 129.9733 312.19234 130.59406 310.87891 131.31445 C 309.56551 132.03478 308.18103 132.65081 307.80078 132.6875 C 307.42068 132.72265 306.53219 133.09644 305.82812 133.51562 C 305.12395 133.93481 304.01851 134.40752 303.37109 134.56641 C 301.99308 134.90461 300.45397 135.66757 299.95703 136.25977 C 299.76428 136.48928 299.1449 136.80573 298.58203 136.96094 C 298.01916 137.11622 297.0429 137.70401 296.41211 138.26758 C 295.49511 139.08675 294.98648 139.32132 293.87695 139.42773 C 292.8622 139.5267 292.03256 139.85943 290.78906 140.66602 C 289.56065 141.46292 288.7172 141.80341 287.75195 141.89258 C 286.6738 141.99238 286.19904 142.22118 285.28711 143.07422 C 284.63364 143.68564 283.82109 144.16251 283.36133 144.20508 C 282.28714 144.30448 281.24643 144.76925 280.34961 145.55078 C 279.93975 145.90799 279.23356 146.29969 278.7793 146.42188 C 278.32504 146.54425 277.63686 146.72685 277.25195 146.82812 C 276.86701 146.92918 276.12688 147.36937 275.60547 147.80664 C 274.78218 148.49706 272.64528 149.15617 270.09375 149.50586 C 269.984 149.5209 269.38596 149.93671 268.76562 150.42969 C 267.99778 151.03989 267.09751 151.43448 265.94531 151.66602 C 265.01448 151.85297 263.54495 152.3884 262.67969 152.85547 C 262.16769 153.13177 261.46987 153.42564 260.80273 153.66797 C 260.14615 153.11208 259.65662 152.66884 259.51562 152.46875 A 3.5877069 3.6974113 0 0 0 259.5332 152.11914 A 3.5877069 3.6974113 0 0 0 258.12305 149.18555 C 257.44608 147.63852 257.07232 145.11483 256.88477 140.80469 C 256.64061 135.19518 256.71989 134.44222 257.65039 133.51172 C 258.91818 132.24386 258.969 130.9187 257.8125 129.26758 C 257.00804 128.11916 257.03138 127.15588 258.0957 117.44922 C 258.73299 111.63676 259.3948 105.95158 259.56836 104.81641 C 259.82092 103.16532 259.71083 102.75391 259.01172 102.75391 C 258.53104 102.75391 258.13672 102.89906 258.13672 103.07812 C 258.13672 105.97296 255.14148 127.85298 254.72461 128.00195 C 253.54874 128.42257 252.08203 130.30837 252.08203 131.40039 C 252.08203 132.02032 252.72441 133.12165 253.50781 133.84766 C 255.01924 135.24838 255.17182 135.98608 255.58594 143.83203 C 255.75947 147.11907 255.76813 148.01078 255.20117 148.50586 A 3.5877069 3.6974113 0 0 0 252.42383 151.41797 C 251.28632 152.6378 247.93605 155.01291 241.51172 159.16797 C 238.01573 161.42906 234.92639 163.33119 232.75586 164.5918 C 232.15063 164.71122 231.33889 164.83451 230.52148 164.95703 A 4.598267 4.2691542 0 0 0 228.51758 164.52539 A 4.598267 4.2691542 0 0 0 226.12109 165.1543 C 221.18041 162.44553 206.19145 150.53762 203.54102 147.16797 A 3.5877069 3.6974113 0 0 0 203.58398 146.63281 A 3.5877069 3.6974113 0 0 0 199.99609 142.93555 A 3.5877069 3.6974113 0 0 0 199.85742 142.94141 C 199.83689 142.94069 199.81534 142.93164 199.79492 142.93164 C 199.72431 142.93164 199.64755 142.95714 199.57422 142.9668 A 3.5877069 3.6974113 0 0 0 199.30078 143.00977 C 199.28234 143.01481 199.26462 143.01595 199.24609 143.02148 A 3.5877069 3.6974113 0 0 0 196.4082 146.63281 A 3.5877069 3.6974113 0 0 0 197.94922 149.66992 C 198.06266 150.51029 197.85986 151.79664 197.32617 154.66992 C 196.54875 158.8555 196.24053 160.48003 195.82422 161.21289 A 3.5877069 3.6974113 0 0 0 193.05078 163.77539 C 193.00639 163.86367 192.94949 163.948 192.91211 164.03711 C 192.21138 165.70738 189.75854 166.77469 127.87695 192.32227 C 92.508633 206.92391 61.833042 219.45851 59.708984 220.17773 C 58.230671 220.67823 56.739989 221.02116 55.585938 221.16797 A 3.5877069 3.6974113 0 0 0 54.087891 220.82617 A 3.5877069 3.6974113 0 0 0 51.849609 221.63672 C 50.282402 222.52892 49.58534 224.62807 50.642578 226.60352 C 51.475843 228.16044 40.637007 257.08752 38.439453 259.17188 C 35.954005 261.52926 36.596669 264.69169 39.734375 265.54297 C 40.548927 265.76401 43.800886 268.35087 46.960938 271.29102 C 54.647752 278.44288 54.600741 277.9605 48.642578 288.30859 C 44.589745 295.34766 43.798966 296.40178 42.361328 296.68945 C 40.369952 297.08772 39.494241 298.86309 39.751953 300.51758 A 3.5877069 3.6974113 0 0 0 43.166016 304.12695 C 46.911423 307.57927 61.726971 324.31527 101.30859 369.71484 C 132.83811 405.87882 159.16465 436.07498 159.8125 436.81641 L 160.99219 438.16406 L 159.61523 437.32031 C 158.85844 436.856 157.0876 435.80636 155.67969 434.98828 C 154.1017 434.07139 152.99052 432.98804 152.7832 432.16211 C 152.07466 429.33908 148.04566 429.00434 146.83203 431.66797 C 146.31312 432.80652 146.37344 433.39601 147.15625 434.84961 C 148.1007 436.60332 148.08314 436.75892 146.12695 443.75781 C 142.08744 458.21066 142.10483 458.16445 140.6582 458.52734 C 139.92485 458.7114 139.18137 459.29518 139.00781 459.82422 C 138.76531 460.56359 136.22695 461.38376 128.03711 463.37109 L 117.38281 465.95703 L 89.376953 486.46094 C 62.918136 505.83078 61.238224 506.9665 58.986328 506.99219 C 56.473433 507.02191 55.039062 508.16934 55.039062 510.15234 C 55.039062 511.42075 56.947383 513.34789 58.205078 513.35156 C 58.879278 513.35321 60.289889 515.4928 62.908203 520.48047 C 65.612196 525.63135 66.870853 527.52009 67.447266 527.29883 C 68.22428 527.00062 66.813428 523.95542 61.816406 515.13086 C 61.085515 513.84007 60.663884 512.49824 60.878906 512.15039 C 61.093855 511.80265 61.415054 510.83621 61.59375 510.00195 C 61.859592 508.7611 67.027175 504.7525 89.990234 487.96875 L 118.06055 467.45312 L 128.48438 464.87109 C 137.35957 462.67369 139.0196 462.40433 139.66797 463.05273 C 141.59546 464.98023 144.53052 463.08561 143.95898 460.2832 C 143.71384 459.08121 144.52091 455.33787 146.7207 447.48047 C 150.70848 433.23633 150.22187 433.57389 159.11328 438.88086 C 164.9825 442.38399 165.44452 442.78611 166.14844 445.00781 C 167.2016 448.33174 168.83584 449.01282 171.89844 447.4043 C 175.32349 445.6053 242.42226 432.87806 244.20312 433.68945 C 247.20074 435.05525 249.83101 431.64968 247.9707 428.81055 C 247.0955 427.47477 247.09813 426.71484 248.01953 416.14453 L 249 404.90039 L 249.47461 404.62109 A 3.5877069 3.6974113 0 0 0 252.39453 402.89844 L 252.41016 402.88867 L 329.71484 421.42773 L 407.01953 439.9668 L 406.89648 441.8457 C 406.8286 442.87898 406.13609 449.89911 405.35742 457.44531 C 404.01963 470.41018 403.866 471.23332 402.58984 472.41602 C 401.8471 473.10442 401.24023 474.17503 401.24023 474.79492 C 401.24023 475.88966 402.7068 477.77542 403.88477 478.19336 C 404.20477 478.30689 407.93318 487.46739 412.16992 498.55078 C 417.99742 513.79554 420.01641 519.73528 420.46289 522.94531 C 420.78744 525.27914 421.05469 527.41852 421.05469 527.69922 C 421.05469 527.98007 421.42805 528.21094 421.88477 528.21094 C 422.56887 528.21094 422.65535 527.65274 422.36914 525.04492 C 421.71857 519.11828 421.18899 517.47169 413.66406 497.9375 C 406.38924 479.05252 406.16674 478.34949 406.99219 476.9375 C 408.13698 474.97878 408.06748 473.94248 406.70117 472.57617 L 405.55664 471.43164 L 407.10547 456.27734 C 408.6468 441.19403 408.66101 441.11941 410.03906 440.60938 C 410.80052 440.3275 411.66994 439.7918 411.97266 439.41797 C 412.27537 439.04418 416.27686 435.84509 420.86328 432.31055 L 429.20117 425.88477 L 449.48242 425.30273 C 468.21839 424.76467 469.89937 424.79096 471.51758 425.6582 C 472.81945 426.35584 474.05846 426.36355 474.98633 425.83398 A 3.5877069 3.6974113 0 0 0 477.17578 422.61523 C 479.84129 419.44542 490.86363 409.12144 520.74219 381.70312 C 549.16706 355.61891 562.2773 343.85576 565.16797 341.86133 A 3.5877069 3.6974113 0 0 0 566.4082 342.09375 A 3.5877069 3.6974113 0 0 0 569.06836 340.87109 C 571.69128 340.73591 576.8999 342.30408 577.51953 343.66406 C 577.83102 344.34758 578.5401 345.05007 579.0957 345.22656 C 579.79603 345.44881 580.53958 346.97228 581.52148 350.19141 C 582.82215 354.45431 583.48652 355.51808 584.16406 354.42188 C 584.30471 354.19434 583.82407 352.15074 583.09766 349.88086 C 582.03168 346.54963 581.89304 345.47022 582.375 344.28125 C 583.53883 341.41023 581.24189 339.04049 578.64258 340.43164 C 577.91646 340.8204 576.49812 340.718 573.83984 340.08203 C 571.44704 339.50946 570.5071 339.18 569.98828 338.52344 A 3.5877069 3.6974113 0 0 0 569.99414 338.39648 A 3.5877069 3.6974113 0 0 0 566.86719 334.73242 C 565.39711 333.03717 562.31468 327.4865 554.82031 313.17969 C 548.33017 300.79003 544.72768 293.49916 543.91016 291.09766 A 3.5877069 3.6974113 0 0 0 544.10547 289.90625 A 3.5877069 3.6974113 0 0 0 540.51758 286.20898 A 3.5877069 3.6974113 0 0 0 537.68359 287.64844 C 535.96064 287.92503 531.18563 287.35592 513.7168 284.99219 C 502.66514 283.49684 492.98117 282.0247 489.88867 281.38867 A 3.5877069 3.6974113 0 0 0 486.98242 279.84766 A 3.5877069 3.6974113 0 0 0 484.97852 280.48047 C 483.40497 279.61262 480.1543 276.2843 470.04102 265.60938 C 460.2761 255.30221 456.76195 251.39138 455.89453 249.72461 A 3.5877069 3.6974113 0 0 0 456.12305 248.43945 A 3.5877069 3.6974113 0 0 0 452.53516 244.74219 A 3.5877069 3.6974113 0 0 0 451.07812 245.06445 C 449.05186 244.31385 444.75214 242.29577 439.76758 239.72461 C 433.56185 236.52353 424.95634 232.09201 420.64258 229.87695 C 417.31087 228.16612 414.46718 226.50913 413.33594 225.6543 A 3.5877069 3.6974113 0 0 0 413.33789 225.62109 A 3.5877069 3.6974113 0 0 0 409.75 221.92383 A 3.5877069 3.6974113 0 0 0 406.16211 225.62109 A 3.5877069 3.6974113 0 0 0 406.30273 226.63867 C 405.49178 231.58555 396.99464 260.74942 394.84766 266.05469 A 3.5877069 3.6974113 0 0 0 393.6582 266.41797 C 391.27437 264.44144 383.15368 256.75208 373.71484 247.5 C 359.49638 233.56296 354.41748 228.31664 353.85938 226.93555 A 3.5877069 3.6974113 0 0 0 354.09766 225.62109 A 3.5877069 3.6974113 0 0 0 353.2207 223.20703 C 353.36218 221.65328 354.32189 218.47961 356.75586 211.15234 C 359.05647 204.22645 360.38368 200.68918 361.19141 199.37891 A 3.5877069 3.6974113 0 0 0 363.9707 195.78125 A 3.5877069 3.6974113 0 0 0 360.38281 192.08398 A 3.5877069 3.6974113 0 0 0 357.94922 193.06836 C 355.47071 192.88404 348.04482 190.45664 318.24805 180.41016 L 279.08203 167.20508 L 272.22266 162.26562 C 272.39944 162.04923 272.53069 161.87138 272.52734 161.82422 C 272.51828 161.721 273.10925 161.28555 273.8418 160.85547 C 274.97609 160.18912 275.62311 160.02967 278.20117 159.77539 L 281.22852 159.47852 L 282.66797 158.10547 C 284.93851 155.93778 285.87365 155.18911 287.69727 154.07617 C 290.36831 152.44615 293.58392 151.03005 295.75586 150.5293 C 298.30714 149.94092 300.62157 149.07409 303.41406 147.66016 C 305.78437 146.46 306.78203 146.1221 309.44922 145.62109 C 311.20664 145.29104 312.87578 144.89556 313.16016 144.74219 C 313.44449 144.58863 314.61075 144.10076 315.75 143.6582 C 316.88929 143.21587 318.21116 142.46523 318.68945 141.99023 C 319.20734 141.47605 319.90772 141.09421 320.41992 141.04688 C 320.89293 141.00306 322.03334 140.65419 322.95312 140.26953 C 323.87284 139.88491 325.02726 139.52976 325.51953 139.48242 C 326.62011 139.37575 329.1184 138.42444 329.74023 137.875 C 330.2724 137.4047 336.02502 134.7047 336.61328 134.65039 C 337.49509 134.56735 340.54463 133.12787 341.57812 132.30664 C 342.43234 131.62785 343.17195 131.34143 344.86328 131.0332 C 346.45444 130.74292 347.38432 130.39906 348.29688 129.76562 C 348.98546 129.28773 350.03099 128.76289 350.61914 128.59961 C 351.2073 128.43654 352.12546 127.92178 352.66016 127.45508 C 353.19481 126.98838 354.56027 126.18691 355.69336 125.67383 C 356.8372 125.1559 358.39082 124.14928 359.1875 123.41211 C 360.15825 122.51393 360.91247 122.05809 361.51758 122.00195 C 362.17872 121.94082 362.84684 121.47053 364.08398 120.19922 C 365.94161 118.29018 368.25973 116.64722 369.98633 116.01562 C 370.61037 115.78736 371.3297 115.44033 371.58398 115.24219 C 372.18032 114.77912 374.33644 113.7391 374.78711 113.69727 C 374.97802 113.67962 375.50435 113.40054 375.95703 113.07617 C 376.40964 112.7518 377.42864 112.26749 378.2207 112 C 379.01284 111.73236 380.14614 111.13691 380.74023 110.67773 C 381.33433 110.21856 382.46811 109.62029 383.25977 109.34766 C 384.05142 109.07473 385.15311 108.54134 385.70703 108.16406 C 386.37474 107.7091 387.48916 107.34074 389.01758 107.07031 C 390.87799 106.74147 391.50849 106.50093 392.28906 105.82031 C 393.51674 104.7499 397.12385 102.99903 399.56641 102.28711 C 400.69905 101.95702 401.61024 101.50898 401.85352 101.16406 C 402.45073 100.31707 405.87917 98.026997 406.6582 97.955078 C 407.55322 97.872262 408.8641 97.119535 409.73828 96.185547 C 410.12855 95.768492 410.74575 95.403881 411.10938 95.367188 C 411.47267 95.333577 412.57018 94.879794 413.54883 94.359375 C 414.52736 93.838919 415.83067 93.27511 416.44531 93.107422 C 417.06003 92.939661 419.40831 91.865713 421.66406 90.720703 C 423.91981 89.575766 426.34026 88.432503 427.04297 88.179688 C 427.74575 87.926945 428.68443 87.386058 429.12695 86.976562 C 429.56958 86.567177 430.5481 86.056937 431.30273 85.84375 C 432.05744 85.630416 433.19288 85.044674 433.82617 84.542969 C 434.45957 84.041447 435.3561 83.595298 435.81836 83.552734 C 436.28058 83.509987 437.11073 83.083095 437.66406 82.603516 C 438.21736 82.123973 439.09548 81.50433 439.61523 81.226562 C 440.13499 80.948392 440.81799 80.439518 441.13281 80.095703 C 441.80081 79.365583 443.43957 79.119598 444.43164 79.601562 C 444.79754 79.779304 445.29908 80.437212 445.54492 81.0625 C 446.06053 82.374648 447.18855 82.793788 448.64648 82.214844 C 449.62858 81.824832 449.81208 81.510509 450.15039 79.640625 C 450.52686 77.559242 452.58316 75.82875 456.25391 74.503906 C 457.78588 73.950867 459.26861 73.479047 459.55078 73.457031 C 459.83258 73.434171 460.48253 72.948302 460.99414 72.376953 C 461.75974 71.522039 462.15105 71.318674 463.20898 71.220703 C 464.23551 71.125741 464.71508 70.888726 465.58984 70.046875 C 466.34998 69.315433 466.98603 68.965823 467.66992 68.902344 C 468.28306 68.845616 469.03587 68.482749 469.66211 67.943359 C 471.90891 66.008125 474.64438 64.445566 476.01172 64.316406 C 477.02427 64.220637 477.64758 63.943198 478.66211 63.136719 C 479.39164 62.556747 480.45055 61.955875 481.01562 61.798828 C 481.58081 61.642112 482.60337 61.128536 483.28711 60.658203 C 483.97089 60.18798 484.90473 59.691553 485.36328 59.554688 C 486.28854 59.278205 489.32855 57.499262 490.92188 56.302734 C 491.5887 55.801946 492.60039 55.402675 493.78906 55.171875 C 495.92791 54.756178 496.74058 54.377261 496.69141 53.816406 C 496.64774 53.317453 495.54719 53.095478 494.22656 53.130859 z M 421.60352 133.02539 C 416.13675 133.02539 414.14049 140.61898 418.91211 143.26367 C 422.5411 145.27504 427.10938 142.60666 427.10938 138.47461 C 427.10938 135.71279 424.39231 133.02539 421.60352 133.02539 z M 157.96484 133.57422 C 152.49808 133.57422 150.50182 141.16976 155.27344 143.81445 C 158.90243 145.82583 163.46875 143.15744 163.46875 139.02539 C 163.46875 136.26357 160.75363 133.57422 157.96484 133.57422 z M 201.71484 149.87305 C 204.93172 152.01229 216.40055 160.74162 221.84375 165.17969 C 220.03619 165.14922 217.89561 165.76313 216.32031 166.84375 C 216.26183 166.88386 216.18021 166.92585 216.11328 166.9668 C 215.78598 166.92403 215.5504 166.90252 215.20508 166.85547 C 212.32925 166.46359 207.58197 165.84787 204.6543 165.48828 C 202.54106 165.22865 201.06147 165.0161 200.06445 164.61133 A 3.5877069 3.6974113 0 0 0 198.3457 161.68945 C 198.35729 160.35708 198.70861 158.48247 199.25 155.78125 C 199.7127 153.47274 200.19762 151.41729 200.52734 150.28711 A 3.5877069 3.6974113 0 0 0 201.71484 149.87305 z M 253.32812 154.64453 A 3.5877069 3.6974113 0 0 0 254.27539 155.38867 C 254.35483 155.64427 254.47144 156.0737 254.57031 156.42188 C 254.22225 156.57611 253.89042 156.7105 253.64062 156.78125 C 252.93964 156.97943 251.61655 157.51375 250.69922 157.96875 C 249.78182 158.42393 248.23889 159.05419 247.26953 159.36719 C 246.31203 159.67655 244.48262 160.2702 243.17578 160.69531 C 247.57634 157.89 251.82668 155.31303 253.32812 154.64453 z M 90.816406 157.79297 C 85.349639 157.79297 83.353384 165.38655 88.125 168.03125 C 91.753991 170.04262 96.320312 167.37424 96.320312 163.24219 C 96.320312 160.48037 93.605197 157.79297 90.816406 157.79297 z M 270.72461 163.79492 L 278.22656 169.17773 L 317.51367 182.45312 C 338.60986 189.58195 355.82865 195.48618 356.80078 195.92188 A 3.5877069 3.6974113 0 0 0 356.93164 196.78906 C 356.9182 196.80339 356.91092 196.82008 356.89648 196.83398 C 356.61398 197.10628 342.51279 203.07332 325.56055 210.09375 C 308.60831 217.11418 294.24216 223.02535 293.63672 223.23047 C 292.81927 223.50754 292.06932 223.12001 290.7207 221.72266 C 289.02383 219.96447 288.73072 219.86185 286.25977 220.1543 L 283.61523 220.4668 L 273.65234 202.06641 L 263.68945 183.66602 L 264.61133 182.05664 C 266.13402 179.40361 265.15326 177.65405 260.98242 175.58984 C 260.91261 175.55531 260.26808 172.96361 259.49023 169.71875 C 262.05327 169.10298 262.38335 168.91947 263.95703 167.50391 C 265.24647 166.34407 266.14054 165.82393 267.91406 165.20117 C 269.24096 164.73523 270.03082 164.34989 270.72461 163.79492 z M 200.76953 166.81641 C 202.38071 166.86735 205.08192 167.16491 210.01953 167.74609 C 211.12808 167.87658 212.12978 168.00678 213.125 168.13672 C 212.53144 168.36271 212.03565 168.68474 211.63086 169.11523 C 210.56496 170.24909 206.65779 172.22211 204.68164 172.625 C 202.64697 173.04007 200.29058 175.23222 200.13867 176.85156 C 200.08125 177.46438 199.6853 178.28323 199.19336 178.80273 C 199.17424 178.82292 199.15415 178.85338 199.13477 178.875 C 181.8064 186.48019 182.46715 186.19522 183.00586 185.26758 C 184.96105 181.90072 193.95875 170.0337 195.69336 168.44727 A 3.5877069 3.6974113 0 0 0 196.48438 168.54102 A 3.5877069 3.6974113 0 0 0 199.48828 166.85938 C 199.82944 166.82098 200.22151 166.79908 200.76953 166.81641 z M 193.08398 167.96094 C 193.18383 168.06074 190.15211 172.4353 186.34766 177.68359 C 182.28739 183.28484 180.54743 185.60504 179.44727 186.52148 A 4.598267 4.2691542 0 0 0 177.83594 186.24609 A 4.598267 4.2691542 0 0 0 173.83594 188.41602 C 169.32551 189.97814 152.21309 194.88119 127.9668 201.54492 C 84.407608 213.51647 79.311594 214.88044 80.673828 214.20117 C 82.983589 213.04937 192.94125 167.8182 193.08398 167.96094 z M 257.89844 170.14062 C 259.10881 175.59039 259.05548 176.27965 258.29102 177.22266 L 257.31055 178.43164 L 247.5957 175.16406 C 247.92705 174.9563 248.23903 174.77584 248.47461 174.68359 C 249.15949 174.4154 250.34031 173.78661 251.09766 173.28516 C 251.85508 172.78352 252.68955 172.35209 252.95117 172.33008 C 253.21309 172.30586 254.14845 171.86056 255.03125 171.3418 C 255.7186 170.93792 256.8732 170.46233 257.89844 170.14062 z M 246.05078 176.30664 C 251.45469 178.15594 256.81137 179.99138 256.85352 180.02148 C 256.90459 180.05649 257.09656 180.7048 257.2793 181.46094 C 257.55446 182.59927 253.67512 188.9918 234.74023 218.61133 C 214.77926 249.83593 209.7808 257.26308 210.89062 254.04883 C 211.03553 253.62913 214.9753 235.03276 219.64648 212.72266 C 221.15097 205.53701 222.19517 200.59777 223.23047 195.71289 C 224.33222 195.32821 225.43262 194.90263 226.01367 194.58789 C 226.81865 194.15212 227.93994 193.66755 228.50586 193.50977 C 229.15804 193.32817 230.28802 192.4907 231.5918 191.22266 C 232.72308 190.12245 234.8253 188.09163 236.26367 186.71094 C 238.34069 184.7171 238.9046 183.99282 239 183.19141 C 239.12604 182.13457 240.83589 180.27848 243.03906 178.80664 C 243.63834 178.40628 244.82698 177.42418 245.67969 176.625 C 245.79269 176.5191 245.92582 176.41357 246.05078 176.30664 z M 197.72461 181.26172 C 197.44137 181.91565 197.23437 182.52941 197.26172 182.8418 C 197.28139 183.06636 196.90592 183.96963 196.42773 184.84961 C 195.80182 186.00291 195.63536 186.6386 195.83203 187.125 C 195.98218 187.49619 196.39518 188.80308 196.75 190.0293 C 197.20764 191.61154 197.71803 192.61554 198.50781 193.49023 C 199.11985 194.1681 199.62547 194.79219 199.63281 194.87695 C 199.65538 195.1348 203.86519 197.83381 204.19727 197.80078 C 204.36712 197.78504 205.14618 198.08056 205.92969 198.45703 L 205.92969 198.45508 C 207.32755 199.12656 207.42842 199.13243 211.34766 198.76953 C 214.48474 198.47921 215.77908 198.24009 217.37891 197.65234 C 218.37209 197.28745 220.06959 196.73238 221.43555 196.31445 L 217.95508 212.89648 L 209.36133 253.83594 L 207.33789 254.00781 C 205.4537 254.16647 205.25755 254.03337 204.46289 252.08008 C 203.99373 250.92689 198.33607 237.47674 191.89062 222.18945 C 182.74532 200.49876 180.69188 195.38706 180.76172 193.80469 A 4.598267 4.2691542 0 0 0 182.43359 190.51562 A 4.598267 4.2691542 0 0 0 182.42383 190.26367 C 183.31669 189.52758 184.96779 188.50608 187.4082 187.17578 C 190.58601 185.44357 193.06195 183.89984 192.9082 183.74609 C 192.79392 183.63184 194.79496 182.6108 197.72461 181.26172 z M 258.87109 183.86328 C 258.92147 183.82329 259.70513 183.9089 260.61328 184.05273 C 262.15597 184.29671 262.92785 185.54185 272.36133 203.01172 C 281.89484 220.66674 282.42088 221.79837 281.80664 223.28125 C 281.44903 224.14508 281.23979 225.75765 281.3418 226.86523 L 281.52734 228.87891 L 249.63672 244.52344 C 232.09643 253.12758 217.73319 260.13363 217.71484 260.0918 C 217.69745 260.05008 216.67434 258.95105 215.44336 257.65039 L 213.20703 255.28516 L 235.99219 219.61133 C 248.52477 199.99039 258.82119 183.90291 258.87109 183.86328 z M 173.29492 191.65234 C 173.45021 191.80745 173.34504 192.1472 173.0625 192.40625 C 172.78 192.66538 153.23119 203.44711 129.61914 216.36523 C 91.80401 237.05372 86.537502 239.78455 85.423828 239.27734 C 83.644022 238.46677 81.748053 238.56384 80.935547 239.5 A 4.598267 4.2691542 0 0 0 79.851562 240.32617 C 78.877336 240.18136 60.470583 227.36027 57.652344 224.93359 A 3.5877069 3.6974113 0 0 0 57.675781 224.52344 A 3.5877069 3.6974113 0 0 0 57.636719 223.99609 C 58.004733 223.6577 58.597493 223.27715 59.304688 222.97656 C 62.21684 221.73879 172.95184 191.30926 173.29492 191.65234 z M 493.70703 191.91602 C 493.10159 191.91602 492.1113 192.41214 491.50586 193.01758 C 490.90042 193.62302 490.4043 194.61331 490.4043 195.21875 C 490.4043 195.82419 490.90042 196.81644 491.50586 197.42188 C 492.1113 198.02731 493.10159 198.52148 493.70703 198.52148 C 494.31247 198.52148 495.30277 198.02731 495.9082 197.42188 C 496.51364 196.81644 497.00977 195.82419 497.00977 195.21875 C 497.00977 194.61331 496.51364 193.62302 495.9082 193.01758 C 495.30277 192.41214 494.31247 191.91602 493.70703 191.91602 z M 174.45898 194.24805 C 174.64458 194.16831 175.2357 194.42516 175.77344 194.81836 C 176.58296 195.41026 177.25302 199.24867 179.66992 217.13281 L 182.58984 238.73242 L 180.73438 240.58789 C 179.71408 241.60814 178.87891 242.83987 178.87891 243.32422 C 178.87891 244.35203 182.92625 244.34785 126.44336 243.37695 C 97.744282 242.88364 89.149751 242.63865 87.724609 242.13086 A 4.598267 4.2691542 0 0 0 87.615234 241.79102 C 87.984731 241.52671 173.93117 194.47503 174.45898 194.24805 z M 178.4375 195.26367 C 178.92891 195.47297 181.70148 201.9021 191.56836 225.45117 C 199.95223 245.46076 203.66815 254.93084 203.19727 255.08789 C 202.81661 255.21474 201.7986 255.91282 200.93359 256.64062 C 200.06859 257.36843 199.27157 257.95656 199.16406 257.94922 C 198.96067 257.93245 197.51855 256.65904 191.625 251.29102 C 188.23356 248.20196 188.16077 248.0762 189.01172 246.86133 C 190.86905 244.20962 189.34718 240.44861 185.81836 238.96484 L 184.13477 238.25586 L 181.25586 217.15039 C 179.67248 205.54251 178.36819 195.80916 178.35352 195.52148 C 178.34464 195.32927 178.3673 195.23377 178.4375 195.26367 z M 358.09375 198.62695 A 3.5877069 3.6974113 0 0 0 358.26953 198.76367 C 357.86306 200.95034 352.08943 218.62832 350.7168 221.93359 A 3.5877069 3.6974113 0 0 0 350.50977 221.92383 A 3.5877069 3.6974113 0 0 0 347.50781 223.60156 C 347.04242 223.37474 346.38366 222.78051 344.96875 221.56836 C 342.68537 219.61214 342.4378 219.19527 342.96875 218.20312 C 343.30449 217.57611 343.43443 216.04263 343.25977 214.76758 L 342.94336 212.46484 L 350.34961 205.49219 C 354.04781 202.01082 357.30294 199.1323 358.09375 198.62695 z M 352.60547 200.89062 C 352.71896 201.00412 350.26187 203.46275 347.14453 206.35352 C 341.95777 211.16318 341.38672 211.54548 340.42969 210.8457 C 339.85452 210.42516 338.5397 210.08008 337.50781 210.08008 C 335.1698 210.08008 331.89062 213.07946 331.89062 215.2168 C 331.89062 216.06885 331.51452 216.72219 330.92578 216.89648 C 330.39601 217.05316 323.62809 218.30827 315.88477 219.68555 C 301.44102 222.25458 299.99099 222.45843 301.89258 221.6543 C 317.747 214.94961 352.45393 200.73908 352.60547 200.89062 z M 337.70312 211.83203 C 338.37856 211.78897 339.03934 211.92435 339.5957 212.28906 C 340.18775 212.67728 339.9338 212.73667 338.69922 212.5 C 337.75235 212.31874 336.45779 212.44892 335.82227 212.78906 C 335.18667 213.12921 334.43647 214.20675 334.1543 215.18359 C 333.7452 216.6001 333.62947 216.70493 333.58984 215.69727 C 333.51136 213.70059 335.67682 211.96122 337.70312 211.83203 z M 341.46289 214.77539 C 341.53563 214.70268 341.59895 214.95893 341.68555 215.50977 C 341.79819 216.22583 341.66412 217.03901 341.38672 217.31641 C 341.08143 217.62173 341.00038 217.10742 341.18164 216.01367 C 341.30823 215.24948 341.39015 214.8481 341.46289 214.77539 z M 3.3027344 217.78516 C 2.6972972 217.78516 1.7069997 218.28128 1.1015625 218.88672 C 0.49612529 219.49216 0 220.48245 0 221.08789 C 0 221.69333 0.49612529 222.68363 1.1015625 223.28906 C 1.7069997 223.8945 2.6972972 224.39062 3.3027344 224.39062 C 3.9081716 224.39062 4.898469 223.8945 5.5039062 223.28906 C 6.1093435 222.68363 6.6054688 221.69333 6.6054688 221.08789 C 6.6054688 220.48245 6.1093435 219.49216 5.5039062 218.88672 C 4.898469 218.28128 3.9081716 217.78516 3.3027344 217.78516 z M 331.02344 218.83789 C 332.30054 218.76355 332.72841 218.92402 333.06055 219.22461 C 333.97608 220.05318 333.9514 220.25041 332.56836 223.07031 C 331.19479 225.87121 330.99139 226.04102 329.06445 226.04102 C 326.8414 226.04102 323.96162 227.99587 323.35156 229.91797 C 323.16362 230.51016 322.8394 230.97076 322.63281 230.94141 C 320.2835 230.60027 295.67684 225.19425 295.82031 225.05078 C 295.92698 224.94415 304.1326 223.39227 314.05469 221.60352 C 324.40471 219.73765 328.89493 218.96179 331.02344 218.83789 z M 338.52344 219.26758 C 339.0627 219.25088 339.37285 219.35108 339.25781 219.53711 C 338.98507 219.97853 336.29297 220.19479 336.29297 219.77539 C 336.29297 219.65845 337.02187 219.45521 337.91406 219.32422 C 338.13709 219.29147 338.34368 219.27315 338.52344 219.26758 z M 340.79688 220.86914 C 341.48019 220.79718 342.20744 221.30611 343.99023 222.8418 C 345.49106 224.13457 346.54096 225.35008 346.32227 225.54492 C 346.10357 225.7398 343.31833 226.76291 340.13281 227.81641 L 334.3418 229.73047 L 333.31055 228.36523 C 332.29154 227.01427 332.29693 226.96925 333.81445 224.16406 C 335.238 221.52913 335.47818 221.34178 337.13477 221.53516 C 338.1166 221.64975 339.4475 221.4621 340.0918 221.11719 C 340.34691 220.98064 340.5691 220.89313 340.79688 220.86914 z M 286.72656 221.67578 C 287.68619 221.63163 288.70516 221.97736 289.58594 222.69141 C 290.30043 223.27079 290.76055 223.8496 290.60938 223.97656 C 290.45802 224.10348 289.87242 223.72579 289.30859 223.13672 C 288.51595 222.30874 287.83114 222.13831 286.2832 222.38672 C 284.90093 222.60882 284.53548 222.5449 285.10547 222.18164 C 285.59552 221.86919 286.15079 221.70227 286.72656 221.67578 z M 283.40039 224.1875 C 283.58809 224.24701 283.73047 224.91655 283.73047 225.81836 C 283.73047 226.84896 283.70928 227.69336 283.68359 227.69336 C 282.92137 227.69336 282.60067 224.64351 283.31641 224.20117 C 283.3448 224.18363 283.37358 224.179 283.40039 224.1875 z M 291.10156 226.16797 C 291.12865 226.19182 291.14258 226.24073 291.14258 226.31641 C 291.14258 226.61912 290.90292 227.23928 290.60938 227.69336 C 290.31579 228.14725 290.07617 228.27147 290.07617 227.96875 C 290.07617 227.66603 290.31583 227.04587 290.60938 226.5918 C 290.82956 226.25138 291.02031 226.09642 291.10156 226.16797 z M 293.86328 226.60938 C 296.30275 226.65642 322.79762 232.61407 322.97852 233.15625 C 323.09421 233.50329 323.79454 234.5084 324.53516 235.38867 L 325.88281 236.98828 L 324.29688 240.73242 C 322.8286 244.19927 322.56408 244.50076 320.74219 244.79688 C 319.66 244.97278 318.1433 245.53111 317.37109 246.03711 C 316.59889 246.54311 315.77293 246.93779 315.53516 246.91211 C 315.29742 246.88719 309.84552 242.9215 303.41992 238.10156 C 292.06254 229.58229 291.75495 229.3 292.36328 227.96484 C 292.70746 227.20948 293.38212 226.59837 293.86328 226.60938 z M 347.19531 227.03516 L 347.20117 227.04102 A 3.5877069 3.6974113 0 0 0 350.50977 229.31836 A 3.5877069 3.6974113 0 0 0 350.54492 229.31641 C 350.5982 229.32194 350.6617 229.34375 350.71094 229.34375 C 351.5001 229.34375 353.9343 231.30703 357.72852 235.00391 C 360.92368 238.11699 370.05829 247.00687 378.02734 254.75977 C 384.94552 261.49035 390.60407 267.23506 391.81641 268.73242 A 3.5877069 3.6974113 0 0 0 391.73828 269.07422 C 390.06138 268.8395 376.41259 265.50112 359.96289 261.29297 L 328.31641 253.19727 L 328.00391 251.31641 C 327.60289 248.90511 326.6839 247.22895 325.19141 246.18359 L 324.00586 245.35352 L 325.64648 241.61719 C 327.17409 238.13802 327.42579 237.85937 329.32422 237.55078 C 331.78163 237.15134 333.95814 235.23866 334.54883 232.95898 C 334.95069 231.40822 335.43803 231.12588 341.08984 229.16016 L 347.19531 227.03516 z M 56.037109 227.68555 C 57.310387 227.76581 59.475293 229.22932 67.759766 234.87695 C 72.821592 238.32763 77.180426 241.52233 78.689453 242.85352 A 4.598267 4.2691542 0 0 0 78.671875 243.17383 A 4.598267 4.2691542 0 0 0 78.822266 244.24414 C 77.525839 245.3082 73.281254 247.4021 62.271484 252.57031 C 52.727592 257.0504 44.657488 260.69756 44.337891 260.67188 C 44.018146 260.64663 43.344228 260.17199 42.839844 259.61719 C 41.97583 258.66676 42.248667 257.74127 47.544922 243.64258 C 52.278286 231.0424 53.129102 228.98087 54.404297 228.20312 A 3.5877069 3.6974113 0 0 0 55.9375 227.6875 C 55.971174 227.68768 56.002203 227.68335 56.037109 227.68555 z M 328.69922 227.74219 C 329.70601 227.78174 329.60238 227.89733 328.18555 228.30664 C 327.15073 228.60562 326.06772 229.44694 325.59375 230.32031 C 325.14584 231.14609 324.76687 231.4996 324.75586 231.10742 C 324.71946 229.92979 327.34531 227.68898 328.69922 227.74219 z M 411.99219 228.50391 C 414.34491 229.01466 418.71599 231.2982 430.84766 237.53125 C 440.26964 242.37213 447.95863 246.54065 449.0918 247.4043 A 3.5877069 3.6974113 0 0 0 449.02539 247.67383 C 448.23537 248.11079 437.95582 252.44423 425.45703 257.60352 C 412.59149 262.91415 401.14077 267.64635 400.01172 268.11914 C 399.41187 268.3703 399.00114 268.53356 398.69141 268.62305 A 3.5877069 3.6974113 0 0 0 397.68945 266.99805 C 398.02411 264.76256 399.9062 257.7574 402.85742 247.81055 C 405.89998 237.55587 408.45224 229.13849 408.5293 229.10547 C 408.53599 229.10264 408.54022 229.10048 408.54688 229.09766 A 3.5877069 3.6974113 0 0 0 409.75 229.31836 A 3.5877069 3.6974113 0 0 0 411.99219 228.50391 z M 331.48828 228.85547 C 331.53471 228.80904 331.68524 228.92752 331.95703 229.19727 C 332.33317 229.57066 332.50351 230.01407 332.33398 230.18359 C 332.16454 230.35301 331.85697 230.04866 331.65039 229.50586 C 331.5011 229.11359 331.44185 228.90189 331.48828 228.85547 z M 286.17773 229.17383 C 286.35748 229.17951 286.56407 229.19772 286.78711 229.23047 C 287.6793 229.36135 288.4082 229.56459 288.4082 229.68164 C 288.4082 230.10101 285.71599 229.88467 285.44336 229.44336 C 285.32844 229.25622 285.6385 229.15678 286.17773 229.17383 z M 283.68555 230.55859 C 283.90822 230.57492 284.0605 230.6419 284.19531 230.73633 C 285.52617 231.66863 288.01847 231.79188 289.49805 231 C 290.34313 230.54776 292.57795 231.97459 302.64648 239.39453 L 314.77539 248.33203 L 314.45312 250.25977 C 314.27608 251.31928 314.08933 252.23937 314.03906 252.30469 C 313.98872 252.36996 293.64686 255.15577 268.83398 258.49609 C 244.02115 261.83638 222.69818 264.57031 221.44922 264.57031 C 219.45872 264.57031 219.13344 264.39196 218.81641 263.12891 C 218.619 262.33641 218.52888 261.6193 218.61914 261.53711 C 218.70959 261.45499 233.23972 254.31038 250.91016 245.6582 C 277.14112 232.81434 282.12687 230.44428 283.68555 230.55859 z M 332.89648 232.375 C 332.94043 232.38406 332.966 232.43517 332.96875 232.5332 C 332.98086 232.92538 332.38171 233.85462 331.63867 234.59766 C 330.89564 235.34069 329.72029 235.92412 329.02539 235.89844 C 328.0186 235.85885 328.12223 235.74529 329.53906 235.33594 C 330.57385 235.03696 331.65888 234.19564 332.13281 233.32227 C 332.46875 232.70293 332.76466 232.34783 332.89648 232.375 z M 325.56445 233.37695 C 325.70814 233.4123 325.89082 233.64772 326.02539 233.99805 C 326.39757 234.96796 326.0798 235.13982 325.53711 234.26172 C 325.3375 233.93886 325.2933 233.55631 325.4375 233.41211 C 325.47358 233.37605 325.51656 233.36517 325.56445 233.37695 z M 184.89844 240.35742 C 185.42413 240.34827 186.26972 240.80605 187.03906 241.625 C 187.6973 242.32562 188.23633 243.53463 188.23633 244.31055 C 188.23633 245.08642 187.84382 246.04619 187.36523 246.44336 C 186.5913 247.08578 186.53659 246.9499 186.86133 245.21875 C 187.21967 243.30843 186.25031 241.45312 184.89453 241.45312 C 184.6135 241.45312 184.38281 241.20506 184.38281 240.90234 C 184.38281 240.53673 184.58302 240.36291 184.89844 240.35742 z M 182.57031 241.04492 C 182.829 241.0097 182.65733 241.56578 182.09375 242.80273 C 181.74245 243.5738 181.24647 244.20508 180.99219 244.20508 C 180.13992 244.20508 180.51909 242.73464 181.63086 241.72852 C 182.10398 241.30033 182.4151 241.06606 182.57031 241.04492 z M 581.21875 244.20508 C 580.61331 244.20508 579.62302 244.69925 579.01758 245.30469 C 578.41214 245.91012 577.91797 246.90238 577.91797 247.50781 C 577.91797 248.11325 578.41214 249.10355 579.01758 249.70898 C 579.62302 250.31442 580.61331 250.80859 581.21875 250.80859 C 581.82419 250.80859 582.81644 250.31442 583.42188 249.70898 C 584.02731 249.10355 584.52148 248.11325 584.52148 247.50781 C 584.52148 246.90238 584.02731 245.91012 583.42188 245.30469 C 582.81644 244.69925 581.82419 244.20508 581.21875 244.20508 z M 94.921875 244.30664 C 96.390806 244.32507 98.136918 244.36174 100.17188 244.41797 C 106.68032 244.59773 122.40887 244.87262 135.12305 245.0293 C 147.83723 245.18601 163.00996 245.46412 168.83984 245.64648 C 179.39804 245.97639 179.44089 245.98148 179.76562 247.27539 C 180.0118 248.25624 177.8979 252.8062 171.13477 265.85352 C 163.05412 281.4425 162.00954 283.19215 160.44531 283.75781 C 159.4918 284.10254 158.6045 284.37843 158.47461 284.37109 C 157.99356 284.34189 89.418741 245.20795 88.888672 244.66016 C 88.604694 244.36652 90.515083 244.25136 94.921875 244.30664 z M 86.632812 246.07812 C 90.993199 248.07062 143.69128 277.60427 156.76562 285.41406 C 157.30318 285.73516 157.36752 286.33824 157.00977 287.71875 C 156.53576 289.54798 156.18674 289.73816 140.86914 296.59766 C 132.79293 300.21435 126.09992 303.10438 125.02344 303.44922 A 4.598267 4.2691542 0 0 0 121.74023 302.09766 C 119.30226 299.60566 114.98276 292.84577 103.26172 274.2207 C 94.4898 260.28191 87.434549 248.62349 86.357422 246.33008 A 4.598267 4.2691542 0 0 0 86.632812 246.07812 z M 320.51172 246.50391 C 320.69874 246.49773 320.87832 246.5075 321.04688 246.53516 C 322.0737 246.70369 321.93545 246.87695 320.12695 247.67188 C 317.63923 248.76537 317.58008 248.77342 317.58008 248.07617 C 317.58008 247.35827 319.20258 246.54717 320.51172 246.50391 z M 183.38281 246.77734 C 184.00775 246.72033 184.90651 247.01843 185.25 247.57422 C 185.4145 247.84024 184.91529 248.05664 184.14062 248.05664 C 183.29723 248.05664 182.73242 247.74667 182.73242 247.2832 C 182.73242 246.97352 183.00785 246.81155 183.38281 246.77734 z M 323.48047 246.99219 C 324.26255 246.83549 326.38477 249.74653 326.38477 251.11523 C 326.38477 251.85512 326.13866 252.46094 325.83594 252.46094 C 325.53322 252.46094 325.28516 251.99819 325.28516 251.43359 C 325.28516 250.86896 324.76102 249.74126 324.12109 248.92773 C 323.48102 248.11417 323.13008 247.27544 323.3418 247.06445 C 323.38099 247.02537 323.42833 247.00263 323.48047 246.99219 z M 81.460938 247.09766 A 4.598267 4.2691542 0 0 0 83.269531 247.44141 A 4.598267 4.2691542 0 0 0 84.101562 247.37109 C 84.284861 247.47112 84.443367 247.57452 84.541016 247.67969 C 84.87441 248.03906 92.531994 260.09743 101.55664 274.47656 C 110.58121 288.8557 118.30141 301.14283 118.71289 301.78125 C 118.96257 302.16863 119.13821 302.49255 119.2207 302.75 A 4.598267 4.2691542 0 0 0 118.4082 303.35547 C 116.10143 303.09336 108.52395 299.84414 89.212891 291.29492 C 69.70776 282.65984 61.927537 279.02577 60.292969 277.74805 A 3.5877069 3.6974113 0 0 0 60.308594 277.40039 A 3.5877069 3.6974113 0 0 0 60.148438 276.32031 C 60.87875 274.58914 63.556365 270.69446 70.246094 261.46875 C 77.850283 250.98186 80.170052 247.89349 81.460938 247.09766 z M 76.523438 248.66406 C 76.674651 248.65989 76.730374 248.70569 76.669922 248.80859 C 76.428481 249.21963 72.164786 255.16443 67.197266 262.01758 C 61.806926 269.45409 59.276744 272.74611 57.931641 273.92578 A 3.5877069 3.6974113 0 0 0 56.722656 273.70312 A 3.5877069 3.6974113 0 0 0 54.410156 274.57812 C 52.130589 273.29644 43.480469 265.34596 43.480469 264.36914 C 43.480469 263.81709 54.306181 258.53013 73.091797 249.90625 C 74.751163 249.14453 76.069798 248.67659 76.523438 248.66406 z M 185.10938 249.44727 C 187.073 249.47859 187.70667 250.11833 196.00977 257.41602 L 198.20117 259.3418 L 197.28906 261.52734 C 196.68792 262.9663 196.46207 264.62295 196.63086 266.37891 L 196.88867 269.04688 L 181.55859 276.71484 L 181.55859 276.7168 C 173.12706 280.9346 166.03988 284.38429 165.81055 284.37695 C 163.52838 284.33079 163.95445 283.21841 172.66211 266.43555 L 181.46094 249.47461 L 184.16016 249.45312 C 184.52125 249.4504 184.82886 249.44279 185.10938 249.44727 z M 449.01367 249.59766 L 449.18945 249.77344 A 3.5877069 3.6974113 0 0 0 452.53516 252.13672 A 3.5877069 3.6974113 0 0 0 452.55469 252.13672 C 453.86859 253.65762 459.07033 264.37061 472.86328 293.88477 C 489.04831 328.5173 491.86568 334.67832 491.51172 335.78516 L 488.58594 335.78516 L 488.58594 336.69922 C 485.21509 334.77043 473.13175 326.05879 444.02734 304.62891 C 418.97413 286.18197 398.59408 270.89706 398.73828 270.66406 C 398.8823 270.43095 410.25227 265.59683 424.00586 259.91992 L 449.01367 249.59766 z M 316.47852 249.70898 C 316.78123 249.70898 317.0293 250.20316 317.0293 250.80859 C 317.0293 251.41403 316.78123 251.91016 316.47852 251.91016 C 316.1758 251.91016 315.92773 251.41403 315.92773 250.80859 C 315.92773 250.20316 316.1758 249.70898 316.47852 249.70898 z M 316.88672 253.68945 C 317.57044 253.77026 319.23047 255.20886 319.23047 255.84766 C 319.23047 256.65116 318.33923 256.35645 317.30078 255.20898 C 316.75119 254.60168 316.46397 253.94228 316.66211 253.74414 C 316.71229 253.69397 316.78904 253.67791 316.88672 253.68945 z M 314.1875 254.02148 L 316.40234 256.23633 L 318.61719 258.45117 L 317.76367 264.125 C 317.20228 267.85655 316.92269 269.21595 316.22461 270.19922 A 4.598267 4.2691542 0 0 0 313.23242 272.49609 C 312.6111 272.69865 311.91691 272.76525 310.97461 272.74609 C 309.61238 272.71846 291.53115 271.12875 270.79492 269.21289 C 250.0587 267.29699 232.34956 265.69625 231.44141 265.65625 C 230.53325 265.61625 230.03908 265.48985 230.3418 265.375 C 230.64452 265.26019 249.63284 262.65829 272.53906 259.59375 L 314.1875 254.02148 z M 325.51172 254.23633 C 325.56387 254.23523 325.59955 254.24411 325.61719 254.26172 C 325.76866 254.41326 325.22759 255.06121 324.41406 255.70117 C 323.15398 256.69255 320.33203 257.34054 320.33203 256.63867 C 320.33203 256.25542 324.72943 254.25276 325.51172 254.23633 z M 456.52539 254.66211 C 457.2241 254.66211 479.75212 278.96661 483.39453 283.54688 A 3.5877069 3.6974113 0 0 0 485.34375 286.83008 C 486.20497 289.14853 488.83412 299.56197 492.29102 314.39844 C 495.81543 329.52457 498.83147 342.33351 498.99219 342.86328 C 499.15294 343.39302 499.02516 343.82812 498.70703 343.82812 C 497.97467 343.82812 495.35742 338.71752 495.35742 337.28711 C 495.35742 337.09587 495.32378 336.9136 495.27734 336.74219 L 495.27734 335.78516 L 494.6582 335.78516 C 492.86904 333.09458 455.98466 254.66211 456.52539 254.66211 z M 327.51758 255.20898 C 329.29931 255.10087 334.96408 256.54287 357.09766 262.19922 C 373.45338 266.37912 386.76822 269.86544 386.6875 269.94727 C 386.60666 270.02891 372.69648 271.08014 355.77539 272.2832 C 330.04775 274.11237 323.59563 274.56905 321.97656 274.32227 A 4.598267 4.2691542 0 0 0 318.2793 270.14258 L 319.02539 265.64453 C 320.18585 258.64748 320.23143 258.51562 321.4707 258.51562 C 323.01457 258.51562 325.60878 257.0987 326.56445 255.73438 C 326.76181 255.45261 326.92367 255.24502 327.51758 255.20898 z M 207.51758 256.86328 C 208.11377 256.86328 208.60156 257.23516 208.60156 257.68945 C 208.60156 258.14349 208.25563 258.51562 207.83398 258.51562 C 207.41227 258.51562 206.92429 258.14349 206.75 257.68945 C 206.5345 257.12805 206.78052 256.86328 207.51758 256.86328 z M 204.82227 257.41406 C 205.81294 257.41406 205.24332 258.97508 203.94141 259.82812 C 201.30537 261.55531 200.43335 260.4922 202.89648 258.55469 C 203.69408 257.92731 204.56028 257.41406 204.82227 257.41406 z M 211.65234 258.16211 C 212.06711 258.09133 212.62169 258.44694 213.53125 259.31836 C 214.43064 260.18002 215.03742 261.09508 214.87891 261.35156 C 214.43433 262.0709 213.95954 261.89668 212.24219 260.38672 C 211.06511 259.3519 210.81548 258.83296 211.27539 258.37305 C 211.39037 258.25807 211.51409 258.1857 211.65234 258.16211 z M 200.375 261.84961 C 200.91114 261.79317 201.23515 263.06118 201.0293 264.98242 C 200.86704 266.49668 200.50873 267.32227 200.01172 267.32227 C 199.11732 267.32227 198.94662 263.69011 199.7793 262.37305 C 199.9929 262.03519 200.19629 261.86842 200.375 261.84961 z M 215.78906 262.91797 C 216.07398 262.91797 216.30664 263.16603 216.30664 263.46875 C 216.30664 263.77147 215.91918 264.01953 215.44727 264.01953 C 214.97521 264.01953 214.74255 263.77147 214.92969 263.46875 C 215.11675 263.16603 215.50432 262.91797 215.78906 262.91797 z M 223.77344 266.89258 C 224.96358 266.80745 245.22794 268.47892 268.80469 270.60742 C 292.38148 272.73585 312.01015 274.47656 312.42383 274.47656 C 312.55952 274.47656 312.68083 274.52975 312.79102 274.60156 A 4.598267 4.2691542 0 0 0 315.4082 278.18164 C 316.03389 278.59627 316.68469 278.88086 317.20508 278.88086 C 317.71662 278.88086 318.47441 278.6245 319.1543 278.26367 A 4.598267 4.2691542 0 0 0 321.03516 276.91016 L 321.38281 276.63672 L 372.73242 300.6543 C 400.97431 313.86402 424.45217 324.88889 424.90625 325.15234 C 425.36051 325.41591 425.48436 325.60991 425.18164 325.58789 C 424.87892 325.56455 378.95194 312.38408 323.12109 296.29688 C 248.47795 274.78899 222.18231 267.00633 223.77344 266.89258 z M 218.95703 267.97852 C 219.08014 267.98376 219.23377 268.01594 219.41992 268.07227 C 220.15456 268.29448 408.02959 322.3006 432.47461 329.31641 C 434.81703 329.9887 435.36571 330.37145 435.37305 331.34375 C 435.37767 332.00335 435.61918 332.91506 435.91016 333.36914 C 436.3271 334.01971 431.69478 338.94347 414.0625 356.58789 L 391.68555 378.97852 L 390.16016 378.18945 C 389.32113 377.75541 388.11596 377.40234 387.48047 377.40234 C 386.84498 377.40234 385.65534 377.73473 384.83789 378.14258 C 383.38418 378.86782 381.5532 377.68946 301.06836 324.26172 C 253.73528 292.84092 218.70395 269.24211 218.5957 268.70312 C 218.49201 268.18699 218.58772 267.96279 218.95703 267.97852 z M 214.00391 268.42188 C 214.32585 268.42188 214.75351 268.68687 214.95312 269.00977 C 215.54554 269.96808 214.87012 270.17131 214.11523 269.26172 C 213.68115 268.73873 213.63881 268.42188 214.00391 268.42188 z M 201.28125 268.82812 C 201.66525 268.77668 202.03379 269.01678 202.41602 269.5625 C 202.82727 270.14966 203.89148 271.00666 204.78125 271.4668 C 205.67102 271.92693 206.39844 272.66894 206.39844 273.11523 C 206.39844 273.56139 206.21346 273.92383 205.98633 273.92383 C 205.25287 273.92016 202.30112 271.91778 201.19141 270.66992 C 200.29327 269.66013 200.24358 269.37648 200.89062 268.97656 C 201.02308 268.8947 201.15325 268.84527 201.28125 268.82812 z M 212.77344 270.5625 C 213.41271 270.5333 213.75719 270.95116 213.31055 271.67383 C 213.10815 272.00131 212.47646 272.51893 211.90625 272.82422 C 210.27051 273.69961 209.8606 272.29971 211.41016 271.12891 C 211.89979 270.75894 212.38987 270.58002 212.77344 270.5625 z M 197.48242 270.6582 L 199.91797 273.09375 C 201.5456 274.72142 203.17555 275.75084 204.83008 276.19336 L 207.30664 276.85547 L 215.17578 317.79688 C 219.50359 340.31455 222.91085 358.87236 222.74609 359.03711 C 222.43383 359.34937 220.56886 357.1204 187.26758 316.62891 C 167.5785 292.68849 166.95507 291.8585 167.52539 290.34766 C 167.94542 289.23266 167.94051 288.3326 167.50977 287.19141 L 166.90625 285.59375 L 182.19531 278.12695 L 197.48242 270.6582 z M 217.98047 271.3457 C 218.21583 271.35387 218.45532 271.41689 218.64453 271.5332 C 219.02291 271.76573 248.06433 291.0199 283.17969 314.32031 C 318.29505 337.62073 354.82443 361.83987 364.35742 368.14258 L 364.35742 368.14453 C 373.89049 374.44724 381.3226 379.57404 380.87109 379.54102 C 380.41966 379.50685 363.38729 374.12026 343.02148 367.57031 C 306.93523 355.96448 305.96385 355.61563 304.92188 353.88672 C 303.82027 352.05896 302.38391 351.4187 299.9375 351.66602 C 298.75 351.78611 293.7689 347.15881 267.87695 321.87891 L 237.2207 291.94727 L 237.2207 288.99219 L 237.2207 286.03516 L 237.07617 286.03516 L 237.07617 285.95703 L 230.79688 285.95703 L 223.80664 278.94922 C 219.54422 274.67733 216.97955 271.71578 217.34766 271.48828 C 217.51556 271.38444 217.74511 271.33754 217.98047 271.3457 z M 390.49023 271.7168 C 391.4798 271.73352 392.03445 271.80786 392.39648 271.92969 A 3.5877069 3.6974113 0 0 0 395.26953 273.41797 A 3.5877069 3.6974113 0 0 0 396.4043 273.22266 C 397.84273 273.72341 400.79948 277.6929 417.17969 300.07031 C 428.12801 315.02707 437.08742 327.46205 437.08008 327.70312 C 437.07696 327.9442 436.75184 328.1953 436.35742 328.26172 C 435.58874 328.39099 324.6418 276.58671 324.97461 276.25391 C 325.08381 276.14471 340.21623 274.98963 358.60156 273.6875 C 379.3923 272.21505 387.25377 271.6621 390.49023 271.7168 z M 208.26562 272.27539 C 208.38462 272.27539 208.62454 272.64748 208.79883 273.10156 C 208.97327 273.55564 208.87716 273.92578 208.58398 273.92578 C 208.29084 273.92578 208.05078 273.55564 208.05078 273.10156 C 208.05078 272.64748 208.14674 272.27539 208.26562 272.27539 z M 215.94336 273.30273 L 223.83008 281.17578 C 227.03154 284.37153 229.14812 286.61518 230.38281 288.125 L 230.38281 292.32031 L 234.45117 292.32031 C 237.36496 294.49564 245.48412 302.23736 266.01562 322.31055 L 297.49023 353.08203 L 297.49023 355.51758 L 297.49023 357.95312 L 279.10742 368.64062 C 268.99761 374.51883 259.58686 379.99027 258.19336 380.80078 L 255.66016 382.27539 L 254.11523 380.93945 C 253.17893 380.12938 251.87844 379.59961 250.8125 379.59961 L 249.05469 379.5957 L 230.61719 328.60742 C 220.47611 300.56412 212.12001 277.22204 212.04883 276.73633 C 211.97507 276.23308 212.78524 275.30476 213.93164 274.57812 L 215.94336 273.30273 z M 401.54492 275.66602 C 401.85696 275.30044 478.14681 331.66076 488.58594 339.89258 L 488.58594 342.14844 L 492.05078 342.14844 C 493.80357 343.09794 496.45898 345.05608 496.45898 345.57227 C 496.45898 346.19579 498.51055 346.74039 469.72656 338.45508 C 445.17895 331.38926 443.77125 330.91543 442.91406 329.42188 C 442.38708 328.50352 441.36801 327.70997 440.47461 327.51953 C 439.21405 327.25094 435.59956 322.62406 420.16406 301.52344 C 409.83618 287.40508 401.45723 275.76876 401.54492 275.66602 z M 209.68945 276.6875 C 209.80854 276.67984 209.92519 276.71816 210.00977 276.80273 C 210.17885 276.97182 218.35639 299.36662 228.18359 326.56836 C 238.01076 353.77007 246.4162 376.95463 246.86133 378.08984 C 247.3062 379.22502 247.48628 380.13749 247.26172 380.11914 C 247.03716 380.10028 242.96909 377.17856 238.2207 373.62695 C 231.49371 368.59544 229.69893 366.99325 230.09375 366.36914 C 231.16405 364.67718 230.6508 362.4633 228.74609 360.55859 C 227.71685 359.52935 226.38951 358.6875 225.79688 358.6875 C 224.53169 358.6875 225.58242 363.52719 216.00781 313.67578 C 212.15415 293.61119 209.15929 277.03798 209.35156 276.8457 C 209.44772 276.74957 209.57037 276.69516 209.68945 276.6875 z M 59.474609 280.55664 C 60.931167 280.68666 66.049178 282.78214 78.46875 288.28125 C 88.740561 292.82937 101.66482 298.54519 107.18945 300.98242 C 112.31074 303.2417 116.52081 305.28882 117.11523 305.79492 A 4.598267 4.2691542 0 0 0 117.08008 306.14648 C 116.91066 306.27733 116.61913 306.35761 116.27148 306.33594 C 110.06953 305.92795 47.233222 300.41252 47.136719 300.26758 C 47.03498 300.11476 46.962491 299.98225 46.876953 299.8418 A 3.5877069 3.6974113 0 0 0 46.298828 298.35547 C 46.170323 296.91611 47.244704 294.95883 50.396484 289.61719 C 54.382573 282.86154 55.147343 281.87487 56.636719 281.57031 C 57.570486 281.37936 58.663617 280.94999 59.064453 280.61719 C 59.133693 280.55972 59.26653 280.53807 59.474609 280.55664 z M 491.00391 284.40625 C 491.96325 284.3455 494.38594 284.55448 497.68164 284.99805 C 501.7013 285.53898 511.92427 286.896 520.40039 288.01367 C 528.87651 289.13142 536.02244 290.23234 536.2793 290.46094 L 536.2793 290.46289 C 536.5363 290.69153 534.39551 292.09038 531.52148 293.57227 C 526.40488 296.2105 526.2702 296.24616 525.07617 295.2793 C 523.55718 294.04916 522.1188 294.02726 520.125 295.20508 C 518.59831 296.10689 518.39388 296.04565 504.65625 290.60938 C 496.9996 287.57944 490.65449 284.85728 490.55469 284.55859 C 490.52745 284.47691 490.68413 284.4265 491.00391 284.40625 z M 165.12695 286.58594 C 165.44497 286.58594 165.84001 286.93903 166.00586 287.37109 C 166.39928 288.39634 166.04488 290.88061 165.60742 290.16406 C 164.88416 288.97931 164.56313 286.58594 165.12695 286.58594 z M 488.91406 286.69531 C 489.45646 286.58556 496.30369 289.02087 504.13086 292.10742 C 518.03841 297.5918 518.37055 297.76021 518.70703 299.44336 C 518.99221 300.86911 517.50901 304.74334 510.0957 321.94531 C 505.17016 333.37468 501.00789 342.72656 500.8457 342.72656 C 500.51719 342.72656 488.048 289.68827 487.97461 287.97852 C 487.95542 287.53197 488.15863 287.13515 488.48047 286.89844 A 3.5877069 3.6974113 0 0 0 488.71289 286.7793 C 488.77995 286.75098 488.84078 286.71016 488.91406 286.69531 z M 159.45508 286.7793 C 159.6003 286.79895 159.73716 286.8888 159.8457 287.06445 C 160.01464 287.33774 159.78469 287.86814 159.33398 288.24219 C 158.66745 288.79537 158.51367 288.76217 158.51367 288.0625 C 158.51367 287.29288 159.01943 286.72034 159.45508 286.7793 z M 159.40234 290.02344 C 159.61395 289.99504 159.98072 290.176 160.45312 290.64844 C 160.94324 291.13851 161.68505 291.53906 162.09961 291.53906 C 162.51421 291.53906 163.00622 291.78713 163.19336 292.08984 C 163.83923 293.13487 160.88602 292.63944 159.88672 291.53516 C 159.13027 290.69931 159.04966 290.07076 159.40234 290.02344 z M 157.13867 291.05859 L 158.39258 292.39258 C 159.55003 293.62356 160.37529 293.97823 163.09961 294.4082 C 163.88528 294.53215 168.70505 306.01526 184.97656 346.53516 C 196.45448 375.11777 205.75169 398.59597 205.63867 398.70898 C 205.52558 398.82207 187.3843 378.67097 165.32422 353.92969 C 134.48736 319.34481 127.18585 311.03775 125.73438 308.3457 A 4.598267 4.2691542 0 0 0 126.26562 306.36328 A 4.598267 4.2691542 0 0 0 126.06641 305.13477 C 126.55759 304.80111 133.43624 301.638 141.72656 297.9375 L 157.13867 291.05859 z M 537.93164 292.46875 A 3.5877069 3.6974113 0 0 0 540.51758 293.60352 A 3.5877069 3.6974113 0 0 0 541.41602 293.48242 C 542.52893 294.52539 544.97171 298.90206 551.0918 310.66602 C 556.09205 320.27731 560.58885 328.94583 561.08398 329.92969 C 561.57898 330.9135 561.91532 331.69975 561.83203 331.67773 C 561.74859 331.65572 554.37356 325.19677 545.44336 317.32422 C 536.51316 309.45159 528.55349 302.44925 527.75391 301.76367 C 525.19045 299.56546 526.04486 298.27754 532.26758 294.95703 C 535.48437 293.24165 537.00311 292.54758 537.93164 292.46875 z M 165.75 293.47656 C 165.86701 293.35955 178.30896 308.26806 193.39844 326.60547 L 220.83398 359.94531 L 220.14844 362.01953 C 219.34023 364.4684 219.67798 366.2198 221.29102 367.95117 C 222.69978 369.46333 223.21721 368.00031 215.14453 385.38281 C 211.65589 392.89486 208.92155 398.10966 208.41992 398.21094 C 207.95498 398.30491 207.34735 397.93477 207.07031 397.38672 C 205.82781 394.92798 165.56066 293.6659 165.75 293.47656 z M 520.3125 302.24414 L 523.13086 302.28906 L 525.94922 302.33203 L 544.98828 318.99609 L 564.01367 335.64844 A 3.5877069 3.6974113 0 0 0 562.82031 338.39648 A 3.5877069 3.6974113 0 0 0 562.82422 338.49805 C 562.68024 338.72114 562.54911 338.87305 562.4668 338.87305 C 562.27548 338.87305 549.78555 340.85559 534.71094 343.27734 C 519.63632 345.69909 507.15465 347.66459 506.97266 347.64258 C 506.79062 347.62214 505.7429 346.62059 504.64453 345.41797 L 502.64648 343.23242 L 511.47852 322.73828 L 520.3125 302.24414 z M 46.966797 302.39648 C 50.438069 302.48841 64.831031 303.54119 81.792969 304.95898 C 112.38815 307.51629 116.45238 307.88209 117.91797 308.82812 A 4.598267 4.2691542 0 0 0 119.30469 310.01953 C 119.82659 310.47299 120.32767 310.8871 120.62109 311.07812 C 121.10038 311.3902 131.05896 339.35151 143.61914 375.6543 C 155.80259 410.8681 165.68551 439.74593 165.58203 439.82812 C 165.18027 440.14751 47.169822 304.35122 46.279297 302.55273 A 3.5877069 3.6974113 0 0 0 46.365234 302.41211 C 46.474676 302.39884 46.591535 302.38655 46.966797 302.39648 z M 123.20898 310.37891 C 124.9122 311.32225 131.82865 318.78479 148.38672 337.35938 C 161.67647 352.26762 179.5824 372.34675 188.17773 381.98047 L 203.80469 399.49609 L 202.625 401.5957 C 201.22042 404.09462 201.13373 406.02368 202.32031 408.31836 C 203.32365 410.25862 204.342 408.9311 191.8125 421.98242 C 173.60165 440.95172 171.78807 442.7267 171.07031 442.27148 C 170.67326 442.01973 169.85348 441.80617 169.24805 441.79883 C 168.28287 441.78547 165.37152 433.76553 145.63086 376.70703 C 133.2475 340.91424 123.00527 311.31982 122.86914 310.94141 C 122.80467 310.76231 122.76648 310.61737 122.75391 310.50586 A 4.598267 4.2691542 0 0 0 123.20898 310.37891 z M 443.70703 332.81836 C 444.05778 332.81836 455.82322 336.08761 469.85156 340.08203 C 495.03327 347.25224 495.35742 347.36233 495.35742 348.76562 C 495.35742 349.54734 495.75 350.74653 496.22852 351.42969 C 497.08024 352.64581 496.87537 352.89904 486.51172 363.52344 C 480.68987 369.49176 475.77892 374.42687 475.59766 374.49219 C 475.41639 374.55765 474.78682 374.24853 474.19922 373.80469 C 473.67179 373.40651 472.80644 373.08957 472.15234 373.02539 A 4.598267 4.2691542 0 0 0 471.56055 372.85742 C 470.2641 372.06943 466.79026 367.43998 456.89453 353.44141 C 449.29094 342.68536 443.07031 333.64474 443.07031 333.35156 C 443.07031 333.05853 443.35624 332.81836 443.70703 332.81836 z M 439.78711 335.42383 C 442.1867 335.21181 443.68449 337.60191 455.70117 354.56055 C 464.31152 366.71183 467.44882 371.23489 468.37891 373.24023 A 4.598267 4.2691542 0 0 0 465.92773 377.01172 A 4.598267 4.2691542 0 0 0 465.96289 377.49414 C 462.80117 378.00679 454.57851 378.64863 434.12695 380.08789 C 415.58542 381.39277 398.77886 382.59331 396.78125 382.75586 C 393.30685 383.03884 393.13517 382.99459 392.80273 381.74023 C 392.4966 380.58484 395.08772 377.79204 414.59766 358.25781 C 426.77601 346.06427 437.23636 335.97708 437.8418 335.83984 C 438.63177 335.6609 439.23336 335.47276 439.78711 335.42383 z M 561.8125 340.74805 C 561.89972 340.83527 542.85561 358.46823 519.49219 379.93164 C 496.12873 401.39505 476.64243 419.17598 476.18945 419.44531 C 476.06994 419.51638 475.98264 419.5576 475.89844 419.59375 A 3.5877069 3.6974113 0 0 0 475.60352 419.36523 C 475.61859 419.30381 475.6251 419.25235 475.65625 419.16992 C 475.8152 418.74931 481.33127 403.97904 487.91406 386.3457 C 497.78896 359.89364 500.05966 354.28516 500.89648 354.28516 C 502.75411 354.28516 504.59971 353.07539 505.61328 351.19336 C 506.16467 350.16944 506.74615 349.32617 506.9043 349.32617 C 507.06248 349.32386 519.44453 347.35842 534.42188 344.95703 C 549.39929 342.55557 561.72517 340.66072 561.8125 340.74805 z M 502.15039 345.16602 C 502.25471 345.06169 502.7733 345.41053 503.61328 346.30469 C 504.32208 347.0591 504.79469 347.78343 504.66406 347.91406 C 504.53321 348.04487 503.86311 347.518 503.17383 346.74414 C 502.35687 345.82696 502.04607 345.27034 502.15039 345.16602 z M 497.28906 348.19727 C 497.41414 348.15602 497.59142 348.5863 497.89062 349.56055 C 498.22365 350.64549 498.44008 351.5332 498.37109 351.5332 C 497.7956 351.5332 496.95931 349.70893 497.10352 348.76562 C 497.15681 348.41674 497.21401 348.22201 497.28906 348.19727 z M 504.25977 349.88086 C 504.61525 349.88086 504.32425 350.50102 503.61328 351.25781 C 502.90235 352.01461 501.9301 352.62234 501.45312 352.61133 C 500.9326 352.59805 501.1912 352.2604 502.09961 351.76758 C 502.9321 351.31596 503.61328 350.70724 503.61328 350.41406 C 503.61328 350.12085 503.90421 349.88086 504.25977 349.88086 z M 497.96289 354.64648 C 497.9948 354.62954 498.00971 354.63212 498.00391 354.6543 C 497.91111 355.00908 492.50845 369.5574 486 386.98438 C 479.49155 404.41132 474.02671 418.66844 473.85352 418.67578 C 473.68047 418.67875 473.2331 411.3125 472.86133 402.30664 C 472.48952 393.30074 472.06499 384.94134 471.91602 383.73047 C 471.6625 381.67092 471.76188 381.47544 473.45703 380.70312 C 474.66303 380.15364 475.43514 379.31144 475.76758 378.18555 C 476.08736 377.10203 480.20371 372.45273 487.21875 365.25195 C 492.86614 359.45496 497.48418 354.9007 497.96289 354.64648 z M 306.48633 357.74219 C 307.33277 357.46064 381.63021 381.59287 381.83789 382.2168 C 382.14894 383.15093 381.69878 383.12212 357.75781 380.67773 C 346.40586 379.51878 336.93221 378.55546 336.70508 378.53711 C 336.47795 378.51818 336.29297 378.10544 336.29297 377.62109 C 336.29297 377.13674 335.44245 375.88971 334.40234 374.84961 C 332.70103 373.14888 332.24499 372.9736 329.86133 373.11523 C 327.24188 373.27078 327.09085 373.18608 316.66797 365.56836 C 310.86924 361.3303 306.28782 357.80824 306.48633 357.74219 z M 303.96094 359.07227 C 304.85625 359.13912 308.54356 361.56144 315.33398 366.53906 C 321.213 370.84856 326.10905 374.63244 326.21289 374.94727 C 326.31659 375.26224 326.08757 375.92393 325.70508 376.41797 C 325.12166 377.1715 320.04528 377.72139 294.1875 379.83789 C 277.23526 381.22552 262.12687 382.49407 260.61328 382.65625 C 258.27971 382.90606 258.02945 382.84883 258.96289 382.27539 C 259.56833 381.90343 268.63511 376.59753 279.11328 370.48438 C 296.35844 360.42322 298.39474 359.37429 300.58008 359.42383 C 301.90793 359.45392 303.36623 359.30303 303.82031 359.08984 C 303.85528 359.07343 303.90125 359.06781 303.96094 359.07227 z M 225.70508 360.36133 C 227.02886 360.32768 228.96484 362.70619 228.96484 364.36523 C 228.96484 365.17817 228.70351 365.84375 228.38281 365.84375 C 228.06211 365.84375 227.96043 365.58168 228.1582 365.26172 C 228.82503 364.18276 227.86076 362.02431 226.34375 361.20117 C 225.43655 360.70915 225.18286 360.37601 225.70508 360.36133 z M 222.05469 362.19336 C 222.22177 362.24583 222.22108 362.63031 222.04688 363.32422 C 221.81696 364.24026 222.01045 365.24182 222.58789 366.12305 C 223.6463 367.73843 223.45338 367.90651 222.16992 366.48828 C 221.15392 365.36547 220.94919 362.79754 221.83203 362.25195 C 221.92496 362.19457 221.99899 362.17587 222.05469 362.19336 z M 226.25781 367.21484 C 226.55387 367.18238 226.76367 367.29183 226.76367 367.51172 C 226.76367 367.80486 226.39158 368.04492 225.9375 368.04492 C 225.48342 368.04492 225.11328 367.94701 225.11328 367.82812 C 225.11328 367.70909 225.48342 367.46921 225.9375 367.29492 C 226.05102 367.2513 226.15913 367.22567 226.25781 367.21484 z M 228.03125 368.91016 C 228.87714 368.94308 232.01846 370.98699 237.68164 375.18359 C 245.63397 381.07659 246.5539 381.92172 246.04688 382.86914 C 245.73366 383.45462 245.47804 384.38389 245.4707 384.93359 C 245.46505 385.70283 241.85495 387.61114 229.79688 393.22461 C 221.18095 397.23561 213.93955 400.5132 213.70508 400.50586 C 213.47054 400.49907 212.71582 400.05915 212.02734 399.5293 L 210.77539 398.56641 L 217.46094 384.18359 C 223.45631 371.28481 224.2944 369.77498 225.5918 369.55078 C 226.38745 369.41329 227.42324 369.13492 227.89258 368.93164 C 227.92864 368.91602 227.97486 368.90796 228.03125 368.91016 z M 330.83008 374.69922 C 331.66775 374.66986 332.76197 375.19658 333.50391 375.98633 C 334.19443 376.72151 334.66259 377.61612 334.54297 377.97461 C 334.42335 378.33332 334.03488 377.98842 333.67969 377.20898 C 333.28612 376.34515 332.3262 375.58961 331.22266 375.27148 C 329.58071 374.79814 329.54431 374.74435 330.83008 374.69922 z M 559.75391 375.19922 C 559.14847 375.19922 558.15817 375.69534 557.55273 376.30078 C 556.9473 376.90622 556.45117 377.89652 556.45117 378.50195 C 556.45117 379.10739 556.9473 380.09769 557.55273 380.70312 C 558.15817 381.30856 559.14847 381.80469 559.75391 381.80469 C 560.35934 381.80469 561.34964 381.30856 561.95508 380.70312 C 562.56052 380.09769 563.05664 379.10739 563.05664 378.50195 C 563.05664 377.89652 562.56052 376.90622 561.95508 376.30078 C 561.34964 375.69534 560.35934 375.19922 559.75391 375.19922 z M 322.90039 379.35938 C 325.10821 379.31786 325.60929 379.48056 325.23828 379.80273 C 325.11213 379.91226 308.91108 384.28278 289.23438 389.51562 C 269.55767 394.74851 253.21092 399.0992 252.9082 399.18359 C 252.81979 399.20825 252.67201 399.18665 252.50195 399.14453 A 3.5877069 3.6974113 0 0 0 249.89062 397.27539 C 249.66624 396.50435 249.94465 395.17884 250.68555 391.9668 C 250.83463 391.32045 251.71355 390.56724 252.76367 390.1875 C 254.54799 389.54229 256.48438 387.10564 256.48438 385.50586 C 256.48438 384.51316 254.8128 384.69442 293.79492 381.4707 C 310.80344 380.06412 319.22069 379.42857 322.90039 379.35938 z M 465.35938 379.59766 C 466.84886 379.60294 464.34381 382.26768 439.49219 407.12305 C 424.3585 422.25898 411.72765 434.63843 411.42383 434.63477 C 411.11994 434.63014 410.55801 434.42565 410.17383 434.18164 C 409.78969 433.93781 405.06172 423.4543 399.66797 410.88477 L 389.86133 388.03125 L 391.0625 386.96094 C 391.72316 386.37249 392.36377 385.60981 392.48633 385.26562 C 392.63648 384.84358 404.26218 383.81824 428.20898 382.11523 C 447.73433 380.72669 464.45239 379.59032 465.35938 379.59766 z M 335.9668 380.29492 C 336.05915 380.20257 346.20953 381.1238 358.52148 382.3418 C 370.83351 383.55983 381.25456 384.55664 381.67969 384.55664 C 382.10481 384.55664 382.60936 385.05525 382.80273 385.66406 C 383.18159 386.85758 385.70718 388.39986 387.31445 388.42188 C 388.0918 388.432 390.34257 393.20163 397.76758 410.57617 C 402.97159 422.7535 407.39389 433.14995 407.5957 433.67969 C 407.79752 434.20946 407.74966 434.63163 407.49023 434.61328 C 406.90465 434.57651 335.7349 380.52682 335.9668 380.29492 z M 328.21484 380.89648 C 328.32007 380.87056 328.66697 381.01479 329.32031 381.3125 C 330.47318 381.83776 331.10495 381.83776 332.25781 381.3125 C 333.56453 380.71697 333.64774 380.73641 333.01562 381.49805 C 332.62488 381.96878 331.62306 382.35547 330.78906 382.35547 C 329.95503 382.35547 328.95321 381.96878 328.5625 381.49805 C 328.24643 381.11728 328.10962 380.92241 328.21484 380.89648 z M 469.11523 381.07227 A 4.598267 4.2691542 0 0 0 469.85547 381.23047 C 470.1862 383.29379 470.73359 391.28646 471.16602 400.58984 L 472.02734 419.10938 A 3.5877069 3.6974113 0 0 0 470.02539 422.11523 L 469.55664 422.62109 L 452.87305 423.10742 C 443.69715 423.37488 434.45692 423.60665 432.33789 423.625 L 428.48438 423.65625 L 422.70508 428.10742 C 417.54741 432.08078 419.73578 429.74298 443.05469 406.36914 C 457.95824 391.43052 466.8114 382.84024 469.11523 381.07227 z M 251.05078 381.28516 C 251.84614 381.26809 252.80672 381.626 253.18359 382.08008 C 253.56029 382.53434 253.77476 382.87654 253.66211 382.83984 C 253.54939 382.80374 252.59077 382.44583 251.53125 382.04492 C 249.74965 381.37087 249.71324 381.31451 251.05078 381.28516 z M 325.86523 381.95312 C 326.61575 381.93764 326.83983 382.12285 327.08203 382.38281 C 328.46257 383.8647 330.68084 384.29841 332.67383 383.47461 C 333.60426 383.09007 334.74659 382.75201 335.21094 382.72266 C 336.35543 382.65066 406.19336 435.70693 406.19336 436.64844 C 406.19336 437.05889 405.88424 437.37334 405.50586 437.34766 C 405.12744 437.32168 375.71592 430.3013 340.14648 421.74805 C 304.57705 413.19487 270.56545 405.01874 264.56641 403.57812 C 258.56733 402.13748 253.7527 400.86448 253.86719 400.75 C 253.98167 400.63552 270.28066 396.2184 290.08594 390.93359 C 316.61331 383.85501 323.6137 381.99958 325.86523 381.95312 z M 248.06445 383.07031 C 248.16256 383.08935 248.22254 383.1626 248.2207 383.28516 C 248.21608 383.53001 247.97323 384.10256 247.67969 384.55664 C 247.21989 385.2683 247.14406 385.25325 247.13672 384.45117 C 247.1321 383.93927 247.37697 383.36682 247.67969 383.17969 C 247.83105 383.0863 247.96634 383.05128 248.06445 383.07031 z M 254.67383 385.25781 C 254.77081 385.2215 254.8109 385.37157 254.81641 385.69922 C 254.82558 386.17596 254.26072 387.10354 253.56055 387.76172 C 252.85996 388.41996 252.05476 388.9546 251.77148 388.94727 C 251.48832 388.94051 251.78217 388.50736 252.42383 387.98438 C 253.06555 387.46131 253.86251 386.53708 254.19531 385.93164 C 254.424 385.51585 254.57684 385.29412 254.67383 385.25781 z M 247.73828 386.56055 C 247.85713 386.46698 248.38819 386.84537 248.91797 387.40039 C 249.44767 387.95537 249.66214 388.41016 249.39648 388.41016 C 248.84139 388.41016 247.41318 386.81667 247.73828 386.56055 z M 245.75195 387.45117 L 246.96094 388.69922 C 247.62593 389.38619 248.44051 390.03994 248.77148 390.15039 C 249.54492 390.40818 248.69548 394.83094 247.39258 397.83984 A 3.5877069 3.6974113 0 0 0 245.77539 400.92773 A 3.5877069 3.6974113 0 0 0 246.64062 403.33008 C 246.81007 404.95659 246.61256 408.31547 245.97852 415.17188 C 245.3941 421.49154 244.80313 426.97119 244.66406 427.34961 C 244.52511 427.72803 243.97085 428.02202 243.43164 428 C 242.89236 427.97879 236.13534 423.77344 228.41602 418.65625 C 217.5974 411.48457 214.42985 409.12849 214.5957 408.375 C 214.71422 407.83734 214.84793 406.16294 214.89453 404.6543 L 214.98047 401.91211 L 230.36719 394.68164 L 245.75195 387.45117 z M 210.5 400.53125 C 210.92463 400.53294 211.39915 400.69865 211.60352 401.0293 L 211.60352 401.03125 C 211.77781 401.31305 211.7319 401.64989 211.5 401.78125 C 211.39362 401.84152 211.26423 401.86713 211.13086 401.87891 A 4.598267 4.2691542 0 0 0 209.7207 401.10156 C 209.716 401.0751 209.70117 401.05035 209.70117 401.02344 C 209.70117 400.69336 210.07537 400.52956 210.5 400.53125 z M 205.08008 401.30664 C 205.25817 401.29729 205.36336 401.42969 205.38281 401.66797 A 4.598267 4.2691542 0 0 0 203.51562 405.0957 A 4.598267 4.2691542 0 0 0 204.83789 408.0918 C 204.75358 408.76795 204.25575 408.80833 203.67578 407.72461 C 202.83775 406.15899 202.96659 403.70282 203.96094 402.2832 C 204.42567 401.6196 204.82283 401.32014 205.08008 401.30664 z M 212.88477 403.25 C 213.12723 403.29131 213.36866 403.91636 213.45117 404.77148 C 213.62146 406.53562 212.82628 408.80736 212.36328 407.88086 C 212.27559 407.70541 212.2274 407.39893 212.19922 407.04492 A 4.598267 4.2691542 0 0 0 212.71094 405.0957 A 4.598267 4.2691542 0 0 0 212.49609 403.81836 C 212.5807 403.54301 212.67505 403.32823 212.78125 403.26953 C 212.81548 403.25061 212.85013 403.2441 212.88477 403.25 z M 209.67383 409.10938 C 211.2213 409.17513 211.73263 409.61055 210.47852 410.0918 C 209.12032 410.61295 206.50063 410.48279 206.125 409.875 C 205.9364 409.57232 205.85956 409.3096 205.95312 409.29492 C 205.99031 409.28836 206.64978 409.24703 206.96289 409.22461 A 4.598267 4.2691542 0 0 0 208.11328 409.36523 A 4.598267 4.2691542 0 0 0 209.67383 409.10938 z M 213.09766 410.34766 L 227.63672 420.01172 C 235.63289 425.32636 242.17578 429.99946 242.17578 430.39648 C 242.17578 430.89856 238.86561 431.74088 231.30469 433.16406 C 225.32598 434.28955 209.71679 437.26859 196.61719 439.78516 L 172.79883 444.36133 L 174.32617 442.70703 C 185.90642 430.15371 204.56921 411.28719 205.26172 411.43359 C 208.54579 412.12776 209.72004 412.09422 211.32617 411.26367 L 213.09766 410.34766 z M 502.51367 414.27734 C 501.90823 414.27734 500.91598 414.77347 500.31055 415.37891 C 499.70511 415.98434 499.21094 416.97464 499.21094 417.58008 C 499.21094 418.18552 499.70511 419.17581 500.31055 419.78125 C 500.91598 420.38669 501.90823 420.88281 502.51367 420.88281 C 503.11911 420.88281 504.10941 420.38669 504.71484 419.78125 C 505.32028 419.17581 505.81445 418.18552 505.81445 417.58008 C 505.81445 416.97464 505.32028 415.98434 504.71484 415.37891 C 504.10941 414.77347 503.11911 414.27734 502.51367 414.27734 z M 462.33398 439.5957 C 460.0538 439.5957 456.83008 442.65708 456.83008 444.82227 C 456.83008 446.68609 458.31135 449.24618 459.8125 449.97461 C 463.50049 451.76413 467.83789 448.97938 467.83789 444.82227 C 467.83789 442.65708 464.61417 439.5957 462.33398 439.5957 z M 462.42969 441.30078 C 463.34406 441.31425 464.23911 441.72196 464.99023 442.52148 C 466.54291 444.17411 466.51116 446.2536 464.91211 447.75586 C 463.25949 449.30853 461.17999 449.27878 459.67773 447.67969 C 458.12506 446.02706 458.15677 443.94561 459.75586 442.44336 C 460.58217 441.66702 461.51531 441.28731 462.42969 441.30078 z M 462.33398 441.79688 C 461.72855 441.79688 460.73825 442.293 460.13281 442.89844 C 459.52738 443.50387 459.03125 444.49417 459.03125 445.09961 C 459.03125 445.70505 459.52738 446.69534 460.13281 447.30078 C 460.73825 447.90622 461.72855 448.40234 462.33398 448.40234 C 462.93942 448.40234 463.92972 447.90622 464.53516 447.30078 C 465.14059 446.69534 465.63672 445.70505 465.63672 445.09961 C 465.63672 444.49417 465.14059 443.50387 464.53516 442.89844 C 463.92972 442.293 462.93942 441.79688 462.33398 441.79688 z M 463.98438 483.62695 C 463.37894 483.62695 462.38864 484.12308 461.7832 484.72852 C 461.17777 485.33392 460.68359 486.32425 460.68359 486.92969 C 460.68359 487.53512 461.17777 488.52542 461.7832 489.13086 C 462.38864 489.7363 463.37894 490.23242 463.98438 490.23242 C 464.58981 490.23242 465.58206 489.7363 466.1875 489.13086 C 466.79294 488.52542 467.28711 487.53512 467.28711 486.92969 C 467.28711 486.32425 466.79294 485.33392 466.1875 484.72852 C 465.58206 484.12308 464.58981 483.62695 463.98438 483.62695 z M 195.94141 485.2793 C 195.33597 485.2793 194.34567 485.77347 193.74023 486.37891 C 193.1348 486.98434 192.63867 487.97659 192.63867 488.58203 C 192.63867 489.18747 193.1348 490.1778 193.74023 490.7832 C 194.34567 491.38868 195.33597 491.88281 195.94141 491.88281 C 196.54684 491.88281 197.53714 491.38868 198.14258 490.7832 C 198.74802 490.1778 199.24414 489.18747 199.24414 488.58203 C 199.24414 487.97659 198.74802 486.98434 198.14258 486.37891 C 197.53714 485.77347 196.54684 485.2793 195.94141 485.2793 z M 363.57227 499.12891 C 363.19169 499.11834 362.80287 499.13325 362.4082 499.17773 C 354.33314 500.08791 352.3083 510.98217 359.5293 514.66602 C 363.45653 516.6695 368.77839 514.82795 370.6875 510.80469 C 373.24513 505.41485 369.28091 499.28747 363.57227 499.12891 z M 429.03516 508.94531 C 425.6803 508.94531 422.15992 512.40846 422.15625 515.71484 C 422.15328 517.9368 423.5902 520.38863 425.62109 521.62695 C 426.59023 522.21786 428.07629 522.70312 428.92383 522.70312 C 432.43456 522.70782 435.91016 519.28722 435.91016 515.82617 C 435.91016 512.41738 432.4419 508.94531 429.03516 508.94531 z "
         transform="matrix(0.27253033,0,0,0.27253033,217.83365,440.7336)"
         id="path4171" />
    </g>
  </g>
</svg>
